<mxfile host="app.diagrams.net" modified="2022-11-24T07:11:51.812Z" agent="5.0 (Windows NT 10.0; Win64; x64) AppleWebKit/537.36 (KHTML, like Gecko) Chrome/107.0.0.0 Safari/537.36" etag="bztsnkBmuEPNhPiV17L2" version="20.4.0" type="github">
  <diagram id="ZzIfgdE_HQE-ywpYCpP_" name="第 1 页">
    <mxGraphModel dx="1550" dy="844" grid="1" gridSize="10" guides="1" tooltips="1" connect="1" arrows="1" fold="1" page="1" pageScale="1" pageWidth="827" pageHeight="1169" math="0" shadow="0">
      <root>
        <mxCell id="0" />
        <mxCell id="1" parent="0" />
        <mxCell id="CD1J--MnG_Ev1wGPMHWV-1" value="" style="shape=table;html=1;whiteSpace=wrap;startSize=0;container=1;collapsible=0;childLayout=tableLayout;" vertex="1" parent="1">
          <mxGeometry x="210" y="290" width="90" height="200" as="geometry" />
        </mxCell>
        <mxCell id="CD1J--MnG_Ev1wGPMHWV-2" value="" style="shape=tableRow;horizontal=0;startSize=0;swimlaneHead=0;swimlaneBody=0;top=0;left=0;bottom=0;right=0;collapsible=0;dropTarget=0;fillColor=none;points=[[0,0.5],[1,0.5]];portConstraint=eastwest;" vertex="1" parent="CD1J--MnG_Ev1wGPMHWV-1">
          <mxGeometry width="90" height="40" as="geometry" />
        </mxCell>
        <mxCell id="CD1J--MnG_Ev1wGPMHWV-3" value="" style="shape=partialRectangle;html=1;whiteSpace=wrap;connectable=0;fillColor=none;top=0;left=0;bottom=0;right=0;overflow=hidden;" vertex="1" parent="CD1J--MnG_Ev1wGPMHWV-2">
          <mxGeometry width="90" height="40" as="geometry">
            <mxRectangle width="90" height="40" as="alternateBounds" />
          </mxGeometry>
        </mxCell>
        <mxCell id="CD1J--MnG_Ev1wGPMHWV-14" value="" style="shape=tableRow;horizontal=0;startSize=0;swimlaneHead=0;swimlaneBody=0;top=0;left=0;bottom=0;right=0;collapsible=0;dropTarget=0;fillColor=none;points=[[0,0.5],[1,0.5]];portConstraint=eastwest;" vertex="1" parent="CD1J--MnG_Ev1wGPMHWV-1">
          <mxGeometry y="40" width="90" height="40" as="geometry" />
        </mxCell>
        <mxCell id="CD1J--MnG_Ev1wGPMHWV-15" value="" style="shape=partialRectangle;html=1;whiteSpace=wrap;connectable=0;fillColor=none;top=0;left=0;bottom=0;right=0;overflow=hidden;" vertex="1" parent="CD1J--MnG_Ev1wGPMHWV-14">
          <mxGeometry width="90" height="40" as="geometry">
            <mxRectangle width="90" height="40" as="alternateBounds" />
          </mxGeometry>
        </mxCell>
        <mxCell id="CD1J--MnG_Ev1wGPMHWV-6" value="" style="shape=tableRow;horizontal=0;startSize=0;swimlaneHead=0;swimlaneBody=0;top=0;left=0;bottom=0;right=0;collapsible=0;dropTarget=0;fillColor=none;points=[[0,0.5],[1,0.5]];portConstraint=eastwest;" vertex="1" parent="CD1J--MnG_Ev1wGPMHWV-1">
          <mxGeometry y="80" width="90" height="40" as="geometry" />
        </mxCell>
        <mxCell id="CD1J--MnG_Ev1wGPMHWV-7" value="" style="shape=partialRectangle;html=1;whiteSpace=wrap;connectable=0;fillColor=none;top=0;left=0;bottom=0;right=0;overflow=hidden;" vertex="1" parent="CD1J--MnG_Ev1wGPMHWV-6">
          <mxGeometry width="90" height="40" as="geometry">
            <mxRectangle width="90" height="40" as="alternateBounds" />
          </mxGeometry>
        </mxCell>
        <mxCell id="CD1J--MnG_Ev1wGPMHWV-10" value="" style="shape=tableRow;horizontal=0;startSize=0;swimlaneHead=0;swimlaneBody=0;top=0;left=0;bottom=0;right=0;collapsible=0;dropTarget=0;fillColor=none;points=[[0,0.5],[1,0.5]];portConstraint=eastwest;" vertex="1" parent="CD1J--MnG_Ev1wGPMHWV-1">
          <mxGeometry y="120" width="90" height="40" as="geometry" />
        </mxCell>
        <mxCell id="CD1J--MnG_Ev1wGPMHWV-11" value="" style="shape=partialRectangle;html=1;whiteSpace=wrap;connectable=0;fillColor=none;top=0;left=0;bottom=0;right=0;overflow=hidden;" vertex="1" parent="CD1J--MnG_Ev1wGPMHWV-10">
          <mxGeometry width="90" height="40" as="geometry">
            <mxRectangle width="90" height="40" as="alternateBounds" />
          </mxGeometry>
        </mxCell>
        <mxCell id="CD1J--MnG_Ev1wGPMHWV-19" style="shape=tableRow;horizontal=0;startSize=0;swimlaneHead=0;swimlaneBody=0;top=0;left=0;bottom=0;right=0;collapsible=0;dropTarget=0;fillColor=none;points=[[0,0.5],[1,0.5]];portConstraint=eastwest;" vertex="1" parent="CD1J--MnG_Ev1wGPMHWV-1">
          <mxGeometry y="160" width="90" height="40" as="geometry" />
        </mxCell>
        <mxCell id="CD1J--MnG_Ev1wGPMHWV-20" style="shape=partialRectangle;html=1;whiteSpace=wrap;connectable=0;fillColor=none;top=0;left=0;bottom=0;right=0;overflow=hidden;" vertex="1" parent="CD1J--MnG_Ev1wGPMHWV-19">
          <mxGeometry width="90" height="40" as="geometry">
            <mxRectangle width="90" height="40" as="alternateBounds" />
          </mxGeometry>
        </mxCell>
        <mxCell id="CD1J--MnG_Ev1wGPMHWV-22" value="fd=0" style="text;html=1;strokeColor=none;fillColor=none;align=center;verticalAlign=middle;whiteSpace=wrap;rounded=0;" vertex="1" parent="1">
          <mxGeometry x="150" y="290" width="60" height="30" as="geometry" />
        </mxCell>
        <mxCell id="CD1J--MnG_Ev1wGPMHWV-24" value="fd=1" style="text;html=1;strokeColor=none;fillColor=none;align=center;verticalAlign=middle;whiteSpace=wrap;rounded=0;" vertex="1" parent="1">
          <mxGeometry x="150" y="330" width="60" height="30" as="geometry" />
        </mxCell>
        <mxCell id="CD1J--MnG_Ev1wGPMHWV-25" value="fd=2" style="text;html=1;strokeColor=none;fillColor=none;align=center;verticalAlign=middle;whiteSpace=wrap;rounded=0;" vertex="1" parent="1">
          <mxGeometry x="150" y="370" width="60" height="30" as="geometry" />
        </mxCell>
        <mxCell id="CD1J--MnG_Ev1wGPMHWV-26" value="fd=3" style="text;html=1;strokeColor=none;fillColor=none;align=center;verticalAlign=middle;whiteSpace=wrap;rounded=0;" vertex="1" parent="1">
          <mxGeometry x="150" y="410" width="60" height="30" as="geometry" />
        </mxCell>
        <mxCell id="CD1J--MnG_Ev1wGPMHWV-27" value="fd=4" style="text;html=1;strokeColor=none;fillColor=none;align=center;verticalAlign=middle;whiteSpace=wrap;rounded=0;" vertex="1" parent="1">
          <mxGeometry x="150" y="450" width="60" height="30" as="geometry" />
        </mxCell>
        <mxCell id="CD1J--MnG_Ev1wGPMHWV-28" value="" style="shape=table;html=1;whiteSpace=wrap;startSize=0;container=1;collapsible=0;childLayout=tableLayout;" vertex="1" parent="1">
          <mxGeometry x="416" y="250" width="104" height="560" as="geometry" />
        </mxCell>
        <mxCell id="CD1J--MnG_Ev1wGPMHWV-29" value="" style="shape=tableRow;horizontal=0;startSize=0;swimlaneHead=0;swimlaneBody=0;top=0;left=0;bottom=0;right=0;collapsible=0;dropTarget=0;fillColor=none;points=[[0,0.5],[1,0.5]];portConstraint=eastwest;" vertex="1" parent="CD1J--MnG_Ev1wGPMHWV-28">
          <mxGeometry width="104" height="40" as="geometry" />
        </mxCell>
        <mxCell id="CD1J--MnG_Ev1wGPMHWV-30" value="" style="shape=partialRectangle;html=1;whiteSpace=wrap;connectable=0;fillColor=none;top=0;left=0;bottom=0;right=0;overflow=hidden;" vertex="1" parent="CD1J--MnG_Ev1wGPMHWV-29">
          <mxGeometry width="104" height="40" as="geometry">
            <mxRectangle width="104" height="40" as="alternateBounds" />
          </mxGeometry>
        </mxCell>
        <mxCell id="CD1J--MnG_Ev1wGPMHWV-31" value="" style="shape=tableRow;horizontal=0;startSize=0;swimlaneHead=0;swimlaneBody=0;top=0;left=0;bottom=0;right=0;collapsible=0;dropTarget=0;fillColor=none;points=[[0,0.5],[1,0.5]];portConstraint=eastwest;" vertex="1" parent="CD1J--MnG_Ev1wGPMHWV-28">
          <mxGeometry y="40" width="104" height="40" as="geometry" />
        </mxCell>
        <mxCell id="CD1J--MnG_Ev1wGPMHWV-32" value="File1 Offset:10" style="shape=partialRectangle;html=1;whiteSpace=wrap;connectable=0;fillColor=none;top=0;left=0;bottom=0;right=0;overflow=hidden;" vertex="1" parent="CD1J--MnG_Ev1wGPMHWV-31">
          <mxGeometry width="104" height="40" as="geometry">
            <mxRectangle width="104" height="40" as="alternateBounds" />
          </mxGeometry>
        </mxCell>
        <mxCell id="CD1J--MnG_Ev1wGPMHWV-33" value="" style="shape=tableRow;horizontal=0;startSize=0;swimlaneHead=0;swimlaneBody=0;top=0;left=0;bottom=0;right=0;collapsible=0;dropTarget=0;fillColor=none;points=[[0,0.5],[1,0.5]];portConstraint=eastwest;" vertex="1" parent="CD1J--MnG_Ev1wGPMHWV-28">
          <mxGeometry y="80" width="104" height="40" as="geometry" />
        </mxCell>
        <mxCell id="CD1J--MnG_Ev1wGPMHWV-34" value="File1 Offset:0" style="shape=partialRectangle;html=1;whiteSpace=wrap;connectable=0;fillColor=none;top=0;left=0;bottom=0;right=0;overflow=hidden;" vertex="1" parent="CD1J--MnG_Ev1wGPMHWV-33">
          <mxGeometry width="104" height="40" as="geometry">
            <mxRectangle width="104" height="40" as="alternateBounds" />
          </mxGeometry>
        </mxCell>
        <mxCell id="CD1J--MnG_Ev1wGPMHWV-35" value="" style="shape=tableRow;horizontal=0;startSize=0;swimlaneHead=0;swimlaneBody=0;top=0;left=0;bottom=0;right=0;collapsible=0;dropTarget=0;fillColor=none;points=[[0,0.5],[1,0.5]];portConstraint=eastwest;" vertex="1" parent="CD1J--MnG_Ev1wGPMHWV-28">
          <mxGeometry y="120" width="104" height="40" as="geometry" />
        </mxCell>
        <mxCell id="CD1J--MnG_Ev1wGPMHWV-36" value="File2 Offset:10" style="shape=partialRectangle;html=1;whiteSpace=wrap;connectable=0;fillColor=none;top=0;left=0;bottom=0;right=0;overflow=hidden;" vertex="1" parent="CD1J--MnG_Ev1wGPMHWV-35">
          <mxGeometry width="104" height="40" as="geometry">
            <mxRectangle width="104" height="40" as="alternateBounds" />
          </mxGeometry>
        </mxCell>
        <mxCell id="CD1J--MnG_Ev1wGPMHWV-37" style="shape=tableRow;horizontal=0;startSize=0;swimlaneHead=0;swimlaneBody=0;top=0;left=0;bottom=0;right=0;collapsible=0;dropTarget=0;fillColor=none;points=[[0,0.5],[1,0.5]];portConstraint=eastwest;" vertex="1" parent="CD1J--MnG_Ev1wGPMHWV-28">
          <mxGeometry y="160" width="104" height="40" as="geometry" />
        </mxCell>
        <mxCell id="CD1J--MnG_Ev1wGPMHWV-38" style="shape=partialRectangle;html=1;whiteSpace=wrap;connectable=0;fillColor=none;top=0;left=0;bottom=0;right=0;overflow=hidden;" vertex="1" parent="CD1J--MnG_Ev1wGPMHWV-37">
          <mxGeometry width="104" height="40" as="geometry">
            <mxRectangle width="104" height="40" as="alternateBounds" />
          </mxGeometry>
        </mxCell>
        <mxCell id="CD1J--MnG_Ev1wGPMHWV-63" style="shape=tableRow;horizontal=0;startSize=0;swimlaneHead=0;swimlaneBody=0;top=0;left=0;bottom=0;right=0;collapsible=0;dropTarget=0;fillColor=none;points=[[0,0.5],[1,0.5]];portConstraint=eastwest;" vertex="1" parent="CD1J--MnG_Ev1wGPMHWV-28">
          <mxGeometry y="200" width="104" height="40" as="geometry" />
        </mxCell>
        <mxCell id="CD1J--MnG_Ev1wGPMHWV-64" style="shape=partialRectangle;html=1;whiteSpace=wrap;connectable=0;fillColor=none;top=0;left=0;bottom=0;right=0;overflow=hidden;" vertex="1" parent="CD1J--MnG_Ev1wGPMHWV-63">
          <mxGeometry width="104" height="40" as="geometry">
            <mxRectangle width="104" height="40" as="alternateBounds" />
          </mxGeometry>
        </mxCell>
        <mxCell id="CD1J--MnG_Ev1wGPMHWV-65" style="shape=tableRow;horizontal=0;startSize=0;swimlaneHead=0;swimlaneBody=0;top=0;left=0;bottom=0;right=0;collapsible=0;dropTarget=0;fillColor=none;points=[[0,0.5],[1,0.5]];portConstraint=eastwest;" vertex="1" parent="CD1J--MnG_Ev1wGPMHWV-28">
          <mxGeometry y="240" width="104" height="40" as="geometry" />
        </mxCell>
        <mxCell id="CD1J--MnG_Ev1wGPMHWV-66" style="shape=partialRectangle;html=1;whiteSpace=wrap;connectable=0;fillColor=none;top=0;left=0;bottom=0;right=0;overflow=hidden;" vertex="1" parent="CD1J--MnG_Ev1wGPMHWV-65">
          <mxGeometry width="104" height="40" as="geometry">
            <mxRectangle width="104" height="40" as="alternateBounds" />
          </mxGeometry>
        </mxCell>
        <mxCell id="CD1J--MnG_Ev1wGPMHWV-67" style="shape=tableRow;horizontal=0;startSize=0;swimlaneHead=0;swimlaneBody=0;top=0;left=0;bottom=0;right=0;collapsible=0;dropTarget=0;fillColor=none;points=[[0,0.5],[1,0.5]];portConstraint=eastwest;" vertex="1" parent="CD1J--MnG_Ev1wGPMHWV-28">
          <mxGeometry y="280" width="104" height="40" as="geometry" />
        </mxCell>
        <mxCell id="CD1J--MnG_Ev1wGPMHWV-68" style="shape=partialRectangle;html=1;whiteSpace=wrap;connectable=0;fillColor=none;top=0;left=0;bottom=0;right=0;overflow=hidden;" vertex="1" parent="CD1J--MnG_Ev1wGPMHWV-67">
          <mxGeometry width="104" height="40" as="geometry">
            <mxRectangle width="104" height="40" as="alternateBounds" />
          </mxGeometry>
        </mxCell>
        <mxCell id="CD1J--MnG_Ev1wGPMHWV-69" style="shape=tableRow;horizontal=0;startSize=0;swimlaneHead=0;swimlaneBody=0;top=0;left=0;bottom=0;right=0;collapsible=0;dropTarget=0;fillColor=none;points=[[0,0.5],[1,0.5]];portConstraint=eastwest;" vertex="1" parent="CD1J--MnG_Ev1wGPMHWV-28">
          <mxGeometry y="320" width="104" height="40" as="geometry" />
        </mxCell>
        <mxCell id="CD1J--MnG_Ev1wGPMHWV-70" style="shape=partialRectangle;html=1;whiteSpace=wrap;connectable=0;fillColor=none;top=0;left=0;bottom=0;right=0;overflow=hidden;" vertex="1" parent="CD1J--MnG_Ev1wGPMHWV-69">
          <mxGeometry width="104" height="40" as="geometry">
            <mxRectangle width="104" height="40" as="alternateBounds" />
          </mxGeometry>
        </mxCell>
        <mxCell id="CD1J--MnG_Ev1wGPMHWV-71" style="shape=tableRow;horizontal=0;startSize=0;swimlaneHead=0;swimlaneBody=0;top=0;left=0;bottom=0;right=0;collapsible=0;dropTarget=0;fillColor=none;points=[[0,0.5],[1,0.5]];portConstraint=eastwest;" vertex="1" parent="CD1J--MnG_Ev1wGPMHWV-28">
          <mxGeometry y="360" width="104" height="40" as="geometry" />
        </mxCell>
        <mxCell id="CD1J--MnG_Ev1wGPMHWV-72" value="File1 Offset:30" style="shape=partialRectangle;html=1;whiteSpace=wrap;connectable=0;fillColor=none;top=0;left=0;bottom=0;right=0;overflow=hidden;" vertex="1" parent="CD1J--MnG_Ev1wGPMHWV-71">
          <mxGeometry width="104" height="40" as="geometry">
            <mxRectangle width="104" height="40" as="alternateBounds" />
          </mxGeometry>
        </mxCell>
        <mxCell id="CD1J--MnG_Ev1wGPMHWV-73" style="shape=tableRow;horizontal=0;startSize=0;swimlaneHead=0;swimlaneBody=0;top=0;left=0;bottom=0;right=0;collapsible=0;dropTarget=0;fillColor=none;points=[[0,0.5],[1,0.5]];portConstraint=eastwest;" vertex="1" parent="CD1J--MnG_Ev1wGPMHWV-28">
          <mxGeometry y="400" width="104" height="40" as="geometry" />
        </mxCell>
        <mxCell id="CD1J--MnG_Ev1wGPMHWV-74" value="File2 Offset:99" style="shape=partialRectangle;html=1;whiteSpace=wrap;connectable=0;fillColor=none;top=0;left=0;bottom=0;right=0;overflow=hidden;" vertex="1" parent="CD1J--MnG_Ev1wGPMHWV-73">
          <mxGeometry width="104" height="40" as="geometry">
            <mxRectangle width="104" height="40" as="alternateBounds" />
          </mxGeometry>
        </mxCell>
        <mxCell id="CD1J--MnG_Ev1wGPMHWV-75" style="shape=tableRow;horizontal=0;startSize=0;swimlaneHead=0;swimlaneBody=0;top=0;left=0;bottom=0;right=0;collapsible=0;dropTarget=0;fillColor=none;points=[[0,0.5],[1,0.5]];portConstraint=eastwest;" vertex="1" parent="CD1J--MnG_Ev1wGPMHWV-28">
          <mxGeometry y="440" width="104" height="40" as="geometry" />
        </mxCell>
        <mxCell id="CD1J--MnG_Ev1wGPMHWV-76" style="shape=partialRectangle;html=1;whiteSpace=wrap;connectable=0;fillColor=none;top=0;left=0;bottom=0;right=0;overflow=hidden;" vertex="1" parent="CD1J--MnG_Ev1wGPMHWV-75">
          <mxGeometry width="104" height="40" as="geometry">
            <mxRectangle width="104" height="40" as="alternateBounds" />
          </mxGeometry>
        </mxCell>
        <mxCell id="CD1J--MnG_Ev1wGPMHWV-77" style="shape=tableRow;horizontal=0;startSize=0;swimlaneHead=0;swimlaneBody=0;top=0;left=0;bottom=0;right=0;collapsible=0;dropTarget=0;fillColor=none;points=[[0,0.5],[1,0.5]];portConstraint=eastwest;" vertex="1" parent="CD1J--MnG_Ev1wGPMHWV-28">
          <mxGeometry y="480" width="104" height="40" as="geometry" />
        </mxCell>
        <mxCell id="CD1J--MnG_Ev1wGPMHWV-78" style="shape=partialRectangle;html=1;whiteSpace=wrap;connectable=0;fillColor=none;top=0;left=0;bottom=0;right=0;overflow=hidden;" vertex="1" parent="CD1J--MnG_Ev1wGPMHWV-77">
          <mxGeometry width="104" height="40" as="geometry">
            <mxRectangle width="104" height="40" as="alternateBounds" />
          </mxGeometry>
        </mxCell>
        <mxCell id="CD1J--MnG_Ev1wGPMHWV-79" style="shape=tableRow;horizontal=0;startSize=0;swimlaneHead=0;swimlaneBody=0;top=0;left=0;bottom=0;right=0;collapsible=0;dropTarget=0;fillColor=none;points=[[0,0.5],[1,0.5]];portConstraint=eastwest;" vertex="1" parent="CD1J--MnG_Ev1wGPMHWV-28">
          <mxGeometry y="520" width="104" height="40" as="geometry" />
        </mxCell>
        <mxCell id="CD1J--MnG_Ev1wGPMHWV-80" style="shape=partialRectangle;html=1;whiteSpace=wrap;connectable=0;fillColor=none;top=0;left=0;bottom=0;right=0;overflow=hidden;" vertex="1" parent="CD1J--MnG_Ev1wGPMHWV-79">
          <mxGeometry width="104" height="40" as="geometry">
            <mxRectangle width="104" height="40" as="alternateBounds" />
          </mxGeometry>
        </mxCell>
        <mxCell id="CD1J--MnG_Ev1wGPMHWV-39" value="打开文件表" style="text;html=1;align=center;verticalAlign=middle;resizable=0;points=[];autosize=1;strokeColor=none;fillColor=none;" vertex="1" parent="1">
          <mxGeometry x="416" y="200" width="80" height="30" as="geometry" />
        </mxCell>
        <mxCell id="CD1J--MnG_Ev1wGPMHWV-40" value="" style="shape=table;html=1;whiteSpace=wrap;startSize=0;container=1;collapsible=0;childLayout=tableLayout;" vertex="1" parent="1">
          <mxGeometry x="210" y="571" width="90" height="200" as="geometry" />
        </mxCell>
        <mxCell id="CD1J--MnG_Ev1wGPMHWV-41" value="" style="shape=tableRow;horizontal=0;startSize=0;swimlaneHead=0;swimlaneBody=0;top=0;left=0;bottom=0;right=0;collapsible=0;dropTarget=0;fillColor=none;points=[[0,0.5],[1,0.5]];portConstraint=eastwest;" vertex="1" parent="CD1J--MnG_Ev1wGPMHWV-40">
          <mxGeometry width="90" height="40" as="geometry" />
        </mxCell>
        <mxCell id="CD1J--MnG_Ev1wGPMHWV-42" value="" style="shape=partialRectangle;html=1;whiteSpace=wrap;connectable=0;fillColor=none;top=0;left=0;bottom=0;right=0;overflow=hidden;" vertex="1" parent="CD1J--MnG_Ev1wGPMHWV-41">
          <mxGeometry width="90" height="40" as="geometry">
            <mxRectangle width="90" height="40" as="alternateBounds" />
          </mxGeometry>
        </mxCell>
        <mxCell id="CD1J--MnG_Ev1wGPMHWV-43" value="" style="shape=tableRow;horizontal=0;startSize=0;swimlaneHead=0;swimlaneBody=0;top=0;left=0;bottom=0;right=0;collapsible=0;dropTarget=0;fillColor=none;points=[[0,0.5],[1,0.5]];portConstraint=eastwest;" vertex="1" parent="CD1J--MnG_Ev1wGPMHWV-40">
          <mxGeometry y="40" width="90" height="40" as="geometry" />
        </mxCell>
        <mxCell id="CD1J--MnG_Ev1wGPMHWV-44" value="" style="shape=partialRectangle;html=1;whiteSpace=wrap;connectable=0;fillColor=none;top=0;left=0;bottom=0;right=0;overflow=hidden;" vertex="1" parent="CD1J--MnG_Ev1wGPMHWV-43">
          <mxGeometry width="90" height="40" as="geometry">
            <mxRectangle width="90" height="40" as="alternateBounds" />
          </mxGeometry>
        </mxCell>
        <mxCell id="CD1J--MnG_Ev1wGPMHWV-45" value="" style="shape=tableRow;horizontal=0;startSize=0;swimlaneHead=0;swimlaneBody=0;top=0;left=0;bottom=0;right=0;collapsible=0;dropTarget=0;fillColor=none;points=[[0,0.5],[1,0.5]];portConstraint=eastwest;" vertex="1" parent="CD1J--MnG_Ev1wGPMHWV-40">
          <mxGeometry y="80" width="90" height="40" as="geometry" />
        </mxCell>
        <mxCell id="CD1J--MnG_Ev1wGPMHWV-46" value="" style="shape=partialRectangle;html=1;whiteSpace=wrap;connectable=0;fillColor=none;top=0;left=0;bottom=0;right=0;overflow=hidden;" vertex="1" parent="CD1J--MnG_Ev1wGPMHWV-45">
          <mxGeometry width="90" height="40" as="geometry">
            <mxRectangle width="90" height="40" as="alternateBounds" />
          </mxGeometry>
        </mxCell>
        <mxCell id="CD1J--MnG_Ev1wGPMHWV-47" value="" style="shape=tableRow;horizontal=0;startSize=0;swimlaneHead=0;swimlaneBody=0;top=0;left=0;bottom=0;right=0;collapsible=0;dropTarget=0;fillColor=none;points=[[0,0.5],[1,0.5]];portConstraint=eastwest;" vertex="1" parent="CD1J--MnG_Ev1wGPMHWV-40">
          <mxGeometry y="120" width="90" height="40" as="geometry" />
        </mxCell>
        <mxCell id="CD1J--MnG_Ev1wGPMHWV-48" value="" style="shape=partialRectangle;html=1;whiteSpace=wrap;connectable=0;fillColor=none;top=0;left=0;bottom=0;right=0;overflow=hidden;" vertex="1" parent="CD1J--MnG_Ev1wGPMHWV-47">
          <mxGeometry width="90" height="40" as="geometry">
            <mxRectangle width="90" height="40" as="alternateBounds" />
          </mxGeometry>
        </mxCell>
        <mxCell id="CD1J--MnG_Ev1wGPMHWV-49" style="shape=tableRow;horizontal=0;startSize=0;swimlaneHead=0;swimlaneBody=0;top=0;left=0;bottom=0;right=0;collapsible=0;dropTarget=0;fillColor=none;points=[[0,0.5],[1,0.5]];portConstraint=eastwest;" vertex="1" parent="CD1J--MnG_Ev1wGPMHWV-40">
          <mxGeometry y="160" width="90" height="40" as="geometry" />
        </mxCell>
        <mxCell id="CD1J--MnG_Ev1wGPMHWV-50" style="shape=partialRectangle;html=1;whiteSpace=wrap;connectable=0;fillColor=none;top=0;left=0;bottom=0;right=0;overflow=hidden;" vertex="1" parent="CD1J--MnG_Ev1wGPMHWV-49">
          <mxGeometry width="90" height="40" as="geometry">
            <mxRectangle width="90" height="40" as="alternateBounds" />
          </mxGeometry>
        </mxCell>
        <mxCell id="CD1J--MnG_Ev1wGPMHWV-51" value="fd=0" style="text;html=1;strokeColor=none;fillColor=none;align=center;verticalAlign=middle;whiteSpace=wrap;rounded=0;" vertex="1" parent="1">
          <mxGeometry x="150" y="571" width="60" height="30" as="geometry" />
        </mxCell>
        <mxCell id="CD1J--MnG_Ev1wGPMHWV-52" value="fd=1" style="text;html=1;strokeColor=none;fillColor=none;align=center;verticalAlign=middle;whiteSpace=wrap;rounded=0;" vertex="1" parent="1">
          <mxGeometry x="150" y="611" width="60" height="30" as="geometry" />
        </mxCell>
        <mxCell id="CD1J--MnG_Ev1wGPMHWV-53" value="fd=2" style="text;html=1;strokeColor=none;fillColor=none;align=center;verticalAlign=middle;whiteSpace=wrap;rounded=0;" vertex="1" parent="1">
          <mxGeometry x="150" y="651" width="60" height="30" as="geometry" />
        </mxCell>
        <mxCell id="CD1J--MnG_Ev1wGPMHWV-54" value="fd=3" style="text;html=1;strokeColor=none;fillColor=none;align=center;verticalAlign=middle;whiteSpace=wrap;rounded=0;" vertex="1" parent="1">
          <mxGeometry x="150" y="691" width="60" height="30" as="geometry" />
        </mxCell>
        <mxCell id="CD1J--MnG_Ev1wGPMHWV-55" value="fd=4" style="text;html=1;strokeColor=none;fillColor=none;align=center;verticalAlign=middle;whiteSpace=wrap;rounded=0;" vertex="1" parent="1">
          <mxGeometry x="150" y="731" width="60" height="30" as="geometry" />
        </mxCell>
        <mxCell id="CD1J--MnG_Ev1wGPMHWV-59" value="" style="endArrow=none;dashed=1;html=1;rounded=0;" edge="1" parent="1">
          <mxGeometry width="50" height="50" relative="1" as="geometry">
            <mxPoint x="190" y="535" as="sourcePoint" />
            <mxPoint x="310" y="535" as="targetPoint" />
          </mxGeometry>
        </mxCell>
        <mxCell id="CD1J--MnG_Ev1wGPMHWV-61" value="进程B" style="text;html=1;strokeColor=none;fillColor=none;align=center;verticalAlign=middle;whiteSpace=wrap;rounded=0;" vertex="1" parent="1">
          <mxGeometry x="225" y="541" width="60" height="30" as="geometry" />
        </mxCell>
        <mxCell id="CD1J--MnG_Ev1wGPMHWV-62" value="进程A" style="text;html=1;strokeColor=none;fillColor=none;align=center;verticalAlign=middle;whiteSpace=wrap;rounded=0;" vertex="1" parent="1">
          <mxGeometry x="225" y="260" width="60" height="30" as="geometry" />
        </mxCell>
        <mxCell id="CD1J--MnG_Ev1wGPMHWV-81" style="edgeStyle=orthogonalEdgeStyle;rounded=0;orthogonalLoop=1;jettySize=auto;html=1;exitX=1;exitY=0.5;exitDx=0;exitDy=0;entryX=0;entryY=0.5;entryDx=0;entryDy=0;" edge="1" parent="1" source="CD1J--MnG_Ev1wGPMHWV-2" target="CD1J--MnG_Ev1wGPMHWV-31">
          <mxGeometry relative="1" as="geometry" />
        </mxCell>
        <mxCell id="CD1J--MnG_Ev1wGPMHWV-82" style="rounded=0;orthogonalLoop=1;jettySize=auto;html=1;exitX=1;exitY=0.5;exitDx=0;exitDy=0;entryX=0;entryY=0.5;entryDx=0;entryDy=0;" edge="1" parent="1" source="CD1J--MnG_Ev1wGPMHWV-41" target="CD1J--MnG_Ev1wGPMHWV-31">
          <mxGeometry relative="1" as="geometry" />
        </mxCell>
        <mxCell id="CD1J--MnG_Ev1wGPMHWV-83" style="edgeStyle=none;rounded=0;orthogonalLoop=1;jettySize=auto;html=1;" edge="1" parent="1" source="CD1J--MnG_Ev1wGPMHWV-14" target="CD1J--MnG_Ev1wGPMHWV-33">
          <mxGeometry relative="1" as="geometry" />
        </mxCell>
        <mxCell id="CD1J--MnG_Ev1wGPMHWV-84" style="edgeStyle=none;rounded=0;orthogonalLoop=1;jettySize=auto;html=1;" edge="1" parent="1" source="CD1J--MnG_Ev1wGPMHWV-6" target="CD1J--MnG_Ev1wGPMHWV-35">
          <mxGeometry relative="1" as="geometry" />
        </mxCell>
        <mxCell id="CD1J--MnG_Ev1wGPMHWV-85" style="edgeStyle=none;rounded=0;orthogonalLoop=1;jettySize=auto;html=1;entryX=0;entryY=0.5;entryDx=0;entryDy=0;" edge="1" parent="1" source="CD1J--MnG_Ev1wGPMHWV-43" target="CD1J--MnG_Ev1wGPMHWV-71">
          <mxGeometry relative="1" as="geometry" />
        </mxCell>
        <mxCell id="CD1J--MnG_Ev1wGPMHWV-86" style="edgeStyle=none;rounded=0;orthogonalLoop=1;jettySize=auto;html=1;entryX=0;entryY=0.5;entryDx=0;entryDy=0;" edge="1" parent="1" source="CD1J--MnG_Ev1wGPMHWV-45" target="CD1J--MnG_Ev1wGPMHWV-73">
          <mxGeometry relative="1" as="geometry" />
        </mxCell>
      </root>
    </mxGraphModel>
  </diagram>
</mxfile>
